# xmcd CD database file
#
# Track frame offsets:
#	150
#	17870
#	27685
#	38725
#
# Disc length: 899 seconds
#
# Revision: 0
# Processed by: cddbd v1.5.1PL0 Copyright (c) Steve Scherf et al.
# Submitted via: CDex 1.51
#
DISCID=2d038104
DTITLE=REACH - SMILE and SIGH
DYEAR=2001
DGENRE=Rock
TTITLE0=SMILE and SIGH
TTITLE1=THERE'S NO WAY OUT
TTITLE2=MEMORIES OF PAST DAYS
TTITLE3=SMILE and SIGH (REMIX)
EXTD=YEAR: 2001
EXTT0=
EXTT1=
EXTT2=
EXTT3=
PLAYORDER=
